<!DOCTYPE svg PUBLIC "-//W3C//DTD SVG 1.1//EN" "http://www.w3.org/Graphics/SVG/1.1/DTD/svg11.dtd">
<svg version="1.1" xmlns="http://www.w3.org/2000/svg" xmlns:xlink="http://www.w3.org/1999/xlink" width="100%" height="100%" viewBox="0 -640 960 720">
 <title>Probability density function of the sum of two dice</title>
 <desc>Probability density function, p(S), of the sum of two fair six-sided dice, S, illustrated by CMG Lee.</desc>
 <defs>
  <path id="pip_1" d="M 0 0 V 0.1" stroke-width="8" stroke-linecap="round"/>
  <g id="pip_2">
   <use transform="translate(-12,12)" xlink:href="#pip_1"/>
   <use transform="translate(12,-12)" xlink:href="#pip_1"/>
  </g>
  <rect id="dice" x="-22" y="-22" width="44" height="44" rx="11" ry="11" stroke="#000000"/>
  <g id="dice_1">
   <use xlink:href="#dice"/>
   <use xlink:href="#pip_1"/>
  </g>
  <g id="dice_2">
   <use xlink:href="#dice"/>
   <use xlink:href="#pip_2"/>
  </g>
  <g id="dice_3">
   <use xlink:href="#dice_2"/>
   <use xlink:href="#pip_1"/>
  </g>
  <g id="dice_4">
   <use xlink:href="#dice_2"/>
   <use xlink:href="#pip_2" transform="scale(-1,1)"/>
  </g>
  <g id="dice_5">
   <use xlink:href="#dice_4"/>
   <use xlink:href="#pip_1"/>
  </g>
  <g id="dice_6">
   <use xlink:href="#dice_4"/>
   <use xlink:href="#pip_1" transform="translate(-12,0)"/>
   <use xlink:href="#pip_1" transform="translate(12,0)"/>
  </g>
  <g id="main" font-family="sans-serif" font-size="40" letter-spacing="-3" text-anchor="middle" stroke="#000000" fill="#000000">
   <rect x="100" y="-638" width="800" height="638" fill="none"/>
   <path d="M 500 -576 H 95 M 500 -504 H 95 M 500 -432 H 95 M 500 -360 H 95 M 500 -288 H 95 M 500 -216 H 95 M 500 -144 H 95 M 500 -72 H 95"/>
   <path d="M 535 -600 H 905 M 605 -500 H 905 M 675 -400 H 905 M 745 -300 H 905 M 815 -200 H 905 M 885 -100 H 905"/>
   <g stroke="none">
    <text x="500" y="75" font-style="italic">S</text>
    <text x="150" y="35">2</text>
    <text x="220" y="35">3</text>
    <text x="290" y="35">4</text>
    <text x="360" y="35">5</text>
    <text x="430" y="35">6</text>
    <text x="500" y="35">7</text>
    <text x="570" y="35">8</text>
    <text x="640" y="35">9</text>
    <text x="710" y="35">10</text>
    <text x="780" y="35">11</text>
    <text x="850" y="35">12</text>
    <g transform="translate(50,15)">
     <text x="0" y="-624" font-style="italic">p(S)</text>
     <text x="0" y="-576">0.16</text>
     <text x="0" y="-504">0.14</text>
     <text x="0" y="-432">0.12</text>
     <text x="0" y="-360">0.10</text>
     <text x="0" y="-288">0.08</text>
     <text x="0" y="-216">0.06</text>
     <text x="0" y="-144">0.04</text>
     <text x="0" y="-72">0.02</text>
    </g>
    <g transform="translate(930,-5)">
     <text x="0" y="-600"><tspan>1</tspan><tspan x="0">_</tspan><tspan x="0" dy="44">6</tspan></text>
     <text x="0" y="-500"><tspan>5</tspan><tspan x="0">__</tspan><tspan x="0" dy="44">36</tspan></text>
     <text x="0" y="-400"><tspan>1</tspan><tspan x="0">_</tspan><tspan x="0" dy="44">9</tspan></text>
     <text x="0" y="-300"><tspan>1</tspan><tspan x="0">__</tspan><tspan x="0" dy="44">12</tspan></text>
     <text x="0" y="-200"><tspan>1</tspan><tspan x="0">__</tspan><tspan x="0" dy="44">18</tspan></text>
     <text x="0" y="-100"><tspan>1</tspan><tspan x="0">__</tspan><tspan x="0" dy="44">36</tspan></text>
    </g>
   </g>
   <g stroke="#006600" fill="#009900">
    <rect x="122" y="-100" width="56" height="100"/>
    <rect x="192" y="-200" width="56" height="200"/>
    <rect x="262" y="-300" width="56" height="300"/>
    <rect x="332" y="-400" width="56" height="400"/>
    <rect x="402" y="-500" width="56" height="500"/>
    <rect x="472" y="-600" width="56" height="600"/>
    <rect x="542" y="-500" width="56" height="500"/>
    <rect x="612" y="-400" width="56" height="400"/>
    <rect x="682" y="-300" width="56" height="300"/>
    <rect x="752" y="-200" width="56" height="200"/>
    <rect x="822" y="-100" width="56" height="100"/>
   </g>
   <g fill="#ffffff">
    <g transform="translate(150,-72)">
     <use xlink:href="#dice_1"/>
    </g>
    <g transform="translate(220,-72)">
     <use xlink:href="#dice_2"/>
     <use xlink:href="#dice_1" transform="translate(0,-100)"/>
    </g>
    <g transform="translate(290,-72)">
     <use xlink:href="#dice_3"/>
     <use xlink:href="#dice_2" transform="translate(0,-100)"/>
     <use xlink:href="#dice_1" transform="translate(0,-200)"/>
    </g>
    <g transform="translate(360,-72)">
     <use xlink:href="#dice_4"/>
     <use xlink:href="#dice_3" transform="translate(0,-100)"/>
     <use xlink:href="#dice_2" transform="translate(0,-200)"/>
     <use xlink:href="#dice_1" transform="translate(0,-300)"/>
    </g>
    <g transform="translate(430,-72)">
     <use xlink:href="#dice_5"/>
     <use xlink:href="#dice_4" transform="translate(0,-100)"/>
     <use xlink:href="#dice_3" transform="translate(0,-200)"/>
     <use xlink:href="#dice_2" transform="translate(0,-300)"/>
     <use xlink:href="#dice_1" transform="translate(0,-400)"/>
    </g>
    <g transform="translate(500,-72)">
     <use xlink:href="#dice_6"/>
     <use xlink:href="#dice_5" transform="translate(0,-100)"/>
     <use xlink:href="#dice_4" transform="translate(0,-200)"/>
     <use xlink:href="#dice_3" transform="translate(0,-300)"/>
     <use xlink:href="#dice_2" transform="translate(0,-400)"/>
     <use xlink:href="#dice_1" transform="translate(0,-500)"/>
    </g>
    <g transform="translate(570,-72)">
     <use xlink:href="#dice_6"/>
     <use xlink:href="#dice_5" transform="translate(0,-100)"/>
     <use xlink:href="#dice_4" transform="translate(0,-200)"/>
     <use xlink:href="#dice_3" transform="translate(0,-300)"/>
     <use xlink:href="#dice_2" transform="translate(0,-400)"/>
    </g>
    <g transform="translate(640,-72)">
     <use xlink:href="#dice_6"/>
     <use xlink:href="#dice_5" transform="translate(0,-100)"/>
     <use xlink:href="#dice_4" transform="translate(0,-200)"/>
     <use xlink:href="#dice_3" transform="translate(0,-300)"/>
    </g>
    <g transform="translate(710,-72)">
     <use xlink:href="#dice_6"/>
     <use xlink:href="#dice_5" transform="translate(0,-100)"/>
     <use xlink:href="#dice_4" transform="translate(0,-200)"/>
    </g>
    <g transform="translate(780,-72)">
     <use xlink:href="#dice_6"/>
     <use xlink:href="#dice_5" transform="translate(0,-100)"/>
    </g>
    <g transform="translate(850,-72)">
     <use xlink:href="#dice_6"/>
    </g>
   </g>
   <g stroke="#ffffff">
    <g transform="translate(150,-27)">
     <use xlink:href="#dice_1"/>
    </g>
    <g transform="translate(220,-27)">
     <use xlink:href="#dice_1"/>
     <use xlink:href="#dice_2" transform="translate(0,-100)"/>
    </g>
    <g transform="translate(290,-27)">
     <use xlink:href="#dice_1"/>
     <use xlink:href="#dice_2" transform="translate(0,-100)"/>
     <use xlink:href="#dice_3" transform="translate(0,-200)"/>
    </g>
    <g transform="translate(360,-27)">
     <use xlink:href="#dice_1"/>
     <use xlink:href="#dice_2" transform="translate(0,-100)"/>
     <use xlink:href="#dice_3" transform="translate(0,-200)"/>
     <use xlink:href="#dice_4" transform="translate(0,-300)"/>
    </g>
    <g transform="translate(430,-27)">
     <use xlink:href="#dice_1"/>
     <use xlink:href="#dice_2" transform="translate(0,-100)"/>
     <use xlink:href="#dice_3" transform="translate(0,-200)"/>
     <use xlink:href="#dice_4" transform="translate(0,-300)"/>
     <use xlink:href="#dice_5" transform="translate(0,-400)"/>
    </g>
    <g transform="translate(500,-27)">
     <use xlink:href="#dice_1"/>
     <use xlink:href="#dice_2" transform="translate(0,-100)"/>
     <use xlink:href="#dice_3" transform="translate(0,-200)"/>
     <use xlink:href="#dice_4" transform="translate(0,-300)"/>
     <use xlink:href="#dice_5" transform="translate(0,-400)"/>
     <use xlink:href="#dice_6" transform="translate(0,-500)"/>
    </g>
    <g transform="translate(570,-27)">
     <use xlink:href="#dice_2"/>
     <use xlink:href="#dice_3" transform="translate(0,-100)"/>
     <use xlink:href="#dice_4" transform="translate(0,-200)"/>
     <use xlink:href="#dice_5" transform="translate(0,-300)"/>
     <use xlink:href="#dice_6" transform="translate(0,-400)"/>
    </g>
    <g transform="translate(640,-27)">
     <use xlink:href="#dice_3"/>
     <use xlink:href="#dice_4" transform="translate(0,-100)"/>
     <use xlink:href="#dice_5" transform="translate(0,-200)"/>
     <use xlink:href="#dice_6" transform="translate(0,-300)"/>
    </g>
    <g transform="translate(710,-27)">
     <use xlink:href="#dice_4"/>
     <use xlink:href="#dice_5" transform="translate(0,-100)"/>
     <use xlink:href="#dice_6" transform="translate(0,-200)"/>
    </g>
    <g transform="translate(780,-27)">
     <use xlink:href="#dice_5"/>
     <use xlink:href="#dice_6" transform="translate(0,-100)"/>
    </g>
    <g transform="translate(850,-27)">
     <use xlink:href="#dice_6"/>
    </g>
   </g>
  </g>
 </defs>
 <use xlink:href="#main"/>
</svg>